<svg id="erh3t0Si2Z91" xmlns="http://www.w3.org/2000/svg" xmlns:xlink="http://www.w3.org/1999/xlink" viewBox="0 0 791.7 601.3" shape-rendering="geometricPrecision" text-rendering="geometricPrecision"><g id="erh3t0Si2Z92"><path id="erh3t0Si2Z93" d="M163.15,840.65C152.65659,840.65,144.15,832.14341,144.15,821.65C144.15,811.15659,152.65659,802.65,163.15,802.65L218.4,802.65L218.4,734.42C218.4,712.880895,235.860895,695.42,257.4,695.42L322.29,695.42L322.29,690.5L305.8,690.5C284.272315,690.472453,266.827547,673.027685,266.8,651.5L266.8,278.35C266.8,256.810895,284.260895,239.35,305.8,239.35L776.62,239.35C798.159105,239.35,815.62,256.810895,815.62,278.35L815.62,294.66L861,311.3C876.34084,316.962544,886.54277,331.567495,886.58,347.92L886.58,581.92C886.544041,598.275252,876.342406,612.883771,861,618.55L815.59,635.19L815.59,651.5C815.562453,673.027685,798.117685,690.472453,776.59,690.5L760.09,690.5L760.09,695.42L822.6,695.42C844.139105,695.42,861.6,712.880895,861.6,734.42L861.6,802.65L916.85,802.65C927.34341,802.65,935.85,811.15659,935.85,821.65C935.85,832.14341,927.34341,840.65,916.85,840.65ZM823.6,802.65L823.6,734.42C823.6,733.867715,823.152285,733.42,822.6,733.42L741.12,733.42C730.62659,733.42,722.12,724.91341,722.12,714.42L722.12,671.5C722.12,661.00659,730.62659,652.5,741.12,652.5L776.62,652.5C777.172285,652.5,777.62,652.052285,777.62,651.5L777.62,621.91C777.639968,613.944717,782.60848,606.830892,790.08,604.07L848,582.87C848.392007,582.723536,848.651359,582.348473,848.65,581.93L848.65,347.93C848.647197,347.515189,848.388586,347.145178,848,347L790.12,325.79C782.64848,323.029108,777.679968,315.915283,777.66,307.95L777.66,278.35C777.66,277.797715,777.212285,277.35,776.66,277.35L305.8,277.35C305.247715,277.35,304.8,277.797715,304.8,278.35L304.8,651.5C304.8,652.052285,305.247715,652.5,305.8,652.5L341.29,652.5C351.78341,652.5,360.29,661.00659,360.29,671.5L360.29,714.42C360.29,724.91341,351.78341,733.42,341.29,733.42L257.4,733.42C256.847715,733.42,256.4,733.867715,256.4,734.42L256.4,802.65Z" transform="matrix(1 0 0 1 -144.15 -239.35)" fill="rgb(108,24,55)" stroke="none" stroke-width="1"/><path id="erh3t0Si2Z94" d="M916.85,817.65L846.6,817.65L846.6,734.42C846.6,721.165166,835.854834,710.42,822.6,710.42L745.12,710.42L745.12,675.5L776.62,675.5C789.874834,675.5,800.62,664.754834,800.62,651.5L800.62,624.71L855.87,604.47C865.311492,600.984262,871.589254,591.994379,871.61,581.93L871.61,347.93C871.589254,337.865621,865.311492,328.875738,855.87,325.39L800.62,305.15L800.62,278.35C800.62,265.095166,789.874834,254.35,776.62,254.35L305.8,254.35C292.545166,254.35,281.8,265.095166,281.8,278.35L281.8,651.5C281.8,664.754834,292.545166,675.5,305.8,675.5L337.29,675.5L337.29,710.42L257.4,710.42C244.145166,710.42,233.4,721.165166,233.4,734.42L233.4,817.65L163.15,817.65C160.940861,817.65,159.15,819.440861,159.15,821.65C159.15,823.859139,160.940861,825.65,163.15,825.65L916.85,825.65C919.059139,825.65,920.85,823.859139,920.85,821.65C920.85,819.440861,919.059139,817.65,916.85,817.65ZM241.4,817.65L241.4,734.42C241.4,725.583444,248.563444,718.42,257.4,718.42L341.29,718.42C343.499139,718.42,345.29,716.629139,345.29,714.42L345.29,671.5C345.29,669.290861,343.499139,667.5,341.29,667.5L305.8,667.5C296.963444,667.5,289.8,660.336556,289.8,651.5L289.8,278.35C289.8,269.513444,296.963444,262.35,305.8,262.35L776.62,262.35C785.456556,262.35,792.62,269.513444,792.62,278.35L792.62,307.93C792.617655,309.60899,793.664093,311.110749,795.24,311.69L853.12,332.89C859.404507,335.210717,863.58653,341.190731,863.61,347.89L863.61,581.89C863.601067,588.593867,859.413814,594.58136,853.12,596.89L795.24,618.1C793.667532,618.677987,792.621848,620.174672,792.62,621.85L792.62,651.5C792.62,660.336556,785.456556,667.5,776.62,667.5L741.12,667.5C738.910861,667.5,737.12,669.290861,737.12,671.5L737.12,714.42C737.12,716.629139,738.910861,718.42,741.12,718.42L822.6,718.42C831.436556,718.42,838.6,725.583444,838.6,734.42L838.6,817.65Z" transform="matrix(1 0 0 1 -144.15 -239.35)" fill="rgb(108,24,55)" stroke="none" stroke-width="1"/><line id="erh3t0Si2Z95" x1="551.93" y1="302.46" x2="625.76" y2="302.46" fill="none" stroke="rgb(108,24,55)" stroke-width="5" stroke-linecap="round" stroke-linejoin="round"/><line id="erh3t0Si2Z96" x1="551.93" y1="271.46" x2="625.76" y2="271.46" fill="none" stroke="rgb(108,24,55)" stroke-width="5" stroke-linecap="round" stroke-linejoin="round"/><line id="erh3t0Si2Z97" x1="551.93" y1="240.46" x2="625.76" y2="240.46" fill="none" stroke="rgb(108,24,55)" stroke-width="5" stroke-linecap="round" stroke-linejoin="round"/><line id="erh3t0Si2Z98" x1="551.93" y1="209.46" x2="625.76" y2="209.46" fill="none" stroke="rgb(108,24,55)" stroke-width="5" stroke-linecap="round" stroke-linejoin="round"/><line id="erh3t0Si2Z99" x1="551.93" y1="178.46" x2="625.76" y2="178.46" fill="none" stroke="rgb(108,24,55)" stroke-width="5" stroke-linecap="round" stroke-linejoin="round"/><line id="erh3t0Si2Z910" x1="551.93" y1="147.46" x2="625.76" y2="147.46" fill="none" stroke="rgb(108,24,55)" stroke-width="5" stroke-linecap="round" stroke-linejoin="round"/><path id="erh3t0Si2Z911" d="M867,347.3L867,581.3C867.000255,589.692744,861.760532,597.192896,853.88,600.08L831.5,608.28L796,621.28L796,307.28L831.5,320.28L853.88,328.48C861.77431,331.372132,867.017064,338.892606,867,347.3Z" transform="matrix(1 0 0 1 -144.15 -239.35)" fill="rgb(255,93,93)" stroke="none" stroke-width="1"/><path id="erh3t0Si2Z912" d="M867,347.3L867,377.3C867.000255,368.907256,861.760532,361.407104,853.88,358.52L831.5,350.32L796,337.32L796,307.32L831.5,320.32L853.88,328.52C861.760532,331.407104,867.000255,338.907256,867,347.3Z" transform="matrix(1 0 0 1 -144.15 -239.35)" fill="rgb(255,215,215)" stroke="none" stroke-width="1"/><path id="erh3t0Si2Z913" d="M867,504.42L867,581.31C867.000255,589.702744,861.760532,597.202896,853.88,600.09L831.5,608.29L796,621.29L796,544.41L831.5,531.41L853.88,523.21C861.763973,520.321637,867.004453,512.816407,867,504.42Z" transform="matrix(1 0 0 1 -144.15 -239.35)" fill="rgb(250,48,78)" stroke="none" stroke-width="1"/><path id="erh3t0Si2Z914" d="M842,733.8L842,821L718.39,821L718.39,733.8C718.39,722.754305,709.435695,713.8,698.39,713.8L822,713.8C833.045695,713.8,842,722.754305,842,733.8Z" transform="matrix(1 0 0 1 -144.15 -239.35)" fill="rgb(243,71,98)" stroke="none" stroke-width="1"/><rect id="erh3t0Si2Z915" width="123.59" height="38.84" rx="0" ry="0" transform="matrix(1 0 0 1 574.24 542.84)" fill="rgb(233,55,81)" stroke="none" stroke-width="1"/><path id="erh3t0Si2Z916" d="M842,733.8L842,740.64L718.39,740.64L718.39,733.8C718.39,722.754305,709.435695,713.8,698.39,713.8L822,713.8C833.045695,713.8,842,722.754305,842,733.8Z" transform="matrix(1 0 0 1 -144.15 -239.35)" fill="rgb(255,215,215)" stroke="none" stroke-width="1"/><path id="erh3t0Si2Z917" d="M796,277.73L796,650.88C796,661.925695,787.045695,670.88,776,670.88L650,670.88C661.045695,670.88,670,661.925695,670,650.88L670,277.73C670,266.684305,661.045695,257.73,650,257.73L776,257.73C787.045695,257.73,796,266.684305,796,277.73Z" transform="matrix(1 0 0 1 -144.15 -239.35)" fill="rgb(241,77,77)" stroke="none" stroke-width="1"/><rect id="erh3t0Si2Z918" width="122.19" height="42.92" rx="0" ry="0" transform="matrix(1 0 0 1 474.17 431.53)" fill="rgb(230,154,153)" stroke="none" stroke-width="1"/><path id="erh3t0Si2Z919" d="M718.39,733.8L718.39,821L236.79,821L236.79,733.8C236.79,722.754305,245.744305,713.8,256.79,713.8L698.39,713.8C709.435695,713.8,718.39,722.754305,718.39,733.8Z" transform="matrix(1 0 0 1 -144.15 -239.35)" fill="rgb(255,248,244)" stroke="none" stroke-width="1"/><path id="erh3t0Si2Z920" d="M670,277.73L670,650.88C670,661.925695,661.045695,670.88,650,670.88L305.18,670.88C294.134305,670.88,285.18,661.925695,285.18,650.88L285.18,277.73C285.18,266.684305,294.134305,257.73,305.18,257.73L650,257.73C661.045695,257.73,670,266.684305,670,277.73ZM631,542.54L631,311.73C631,303.445729,624.284271,296.73,616,296.73L339.18,296.73C330.895729,296.73,324.18,303.445729,324.18,311.73L324.18,542.54C324.18,550.824271,330.895729,557.54,339.18,557.54L616,557.54C624.284271,557.54,631,550.824271,631,542.54Z" transform="matrix(1 0 0 1 -144.15 -239.35)" fill="rgb(255,248,244)" stroke="none" stroke-width="1"/><path id="erh3t0Si2Z921" d="M631,311.73L631,542.54C631,550.824271,624.284271,557.54,616,557.54L339.18,557.54C330.895729,557.54,324.18,550.824271,324.18,542.54L324.18,311.73C324.18,303.445729,330.895729,296.73,339.18,296.73L616,296.73C624.284271,296.73,631,303.445729,631,311.73Z" transform="matrix(1 0 0 1 -144.15 -239.35)" fill="rgb(13,145,211)" stroke="none" stroke-width="1"/><path id="erh3t0Si2Z922" d="M631,311.73L631,330.15L372.6,330.15C364.315729,330.15,357.6,336.865729,357.6,345.15L357.6,557.54L339.18,557.54C330.895729,557.54,324.18,550.824271,324.18,542.54L324.18,311.73C324.18,303.445729,330.895729,296.73,339.18,296.73L616,296.73C624.284271,296.73,631,303.445729,631,311.73Z" transform="matrix(1 0 0 1 -144.15 -239.35)" fill="rgb(108,24,55)" stroke="none" stroke-width="1"/><rect id="erh3t0Si2Z923" width="277.64" height="42.92" rx="0" ry="0" transform="matrix(1 0 0 1 196.53 431.53)" fill="rgb(247,182,172)" stroke="none" stroke-width="1"/><rect id="erh3t0Si2Z924" width="110.89" height="25.25" rx="5" ry="5" transform="matrix(1 0 0 1 419.05 515.44)" fill="rgb(108,24,55)" stroke="none" stroke-width="1"/><circle id="erh3t0Si2Z925" r="22.52" transform="matrix(1 0 0 1 464.32 374.86)" fill="rgb(108,24,55)" stroke="none" stroke-width="1"/><circle id="erh3t0Si2Z926" r="11.3" transform="matrix(1 0 0 1 265.33 374.86)" fill="rgb(108,24,55)" stroke="none" stroke-width="1"/><circle id="erh3t0Si2Z927" r="11.3" transform="matrix(1 0 0 1 228.33 374.86)" fill="rgb(108,24,55)" stroke="none" stroke-width="1"/><circle id="erh3t0Si2Z928" r="11.3" transform="matrix(1 0 0 1 191.33 374.86)" fill="rgb(108,24,55)" stroke="none" stroke-width="1"/><path id="erh3t0Si2Z929" d="M462.53,739.47L291.85,739.47C289.088576,739.47,286.85,741.708576,286.85,744.47L286.85,790.36C286.85,793.121424,289.088576,795.36,291.85,795.36L462.53,795.36C465.291424,795.36,467.53,793.121424,467.53,790.36L467.53,744.47C467.53,741.708576,465.291424,739.47,462.53,739.47ZM432.47,783.42C423.633444,783.42,416.47,776.256556,416.47,767.42C416.47,758.583444,423.633444,751.42,432.47,751.42C441.306556,751.42,448.47,758.583444,448.47,767.42C448.47,776.256556,441.306556,783.42,432.47,783.42Z" transform="matrix(1 0 0 1 -144.15 -239.35)" fill="rgb(230,154,153)" stroke="none" stroke-width="1"/><circle id="erh3t0Si2Z930" r="17" transform="matrix(1 0 0 1 298.32 528.07)" fill="rgb(108,24,55)" stroke="none" stroke-width="1"/><circle id="erh3t0Si2Z931" r="16" transform="matrix(1 0 0 1 288.32 528.07)" fill="rgb(0,210,191)" stroke="none" stroke-width="1"/><polygon id="erh3t0Si2Z932" points="687.35,80.97 687.35,368.94 651.85,381.95 651.85,67.97 687.35,80.97" fill="rgb(108,24,55)" stroke="none" stroke-width="1"/><rect id="erh3t0Si2Z933" width="399.83" height="24.54" rx="0" ry="0" transform="matrix(1 0 0 1 196.53 431.53)" fill="rgb(108,24,55)" stroke="none" stroke-width="1"/><path id="erh3t0Si2Z934" d="M312.91,739.47L312.91,795.36L291.85,795.36C289.088576,795.36,286.85,793.121424,286.85,790.36L286.85,744.47C286.85,741.708576,289.088576,739.47,291.85,739.47Z" transform="matrix(1 0 0 1 -144.15 -239.35)" fill="rgb(108,24,55)" stroke="none" stroke-width="1"/><path id="erh3t0Si2Z935" d="M796,277.73L796,282.28L670,282.28L670,277.73C670,266.684305,661.045695,257.73,650,257.73L776,257.73C787.045695,257.73,796,266.684305,796,277.73Z" transform="matrix(1 0 0 1 -144.15 -239.35)" fill="rgb(255,215,215)" stroke="none" stroke-width="1"/><path id="erh3t0Si2Z936" d="M796,578.45L796,650.88C796,661.925695,787.045695,670.88,776,670.88L650,670.88C661.045695,670.88,670,661.925695,670,650.88L670,578.45Z" transform="matrix(1 0 0 1 -144.15 -239.35)" fill="rgb(233,55,81)" stroke="none" stroke-width="1"/><rect id="erh3t0Si2Z937" width="32.92" height="75.06" rx="16.46" ry="16.46" transform="matrix(1 0 0 0.012989 281.32 162.752517)" fill="rgb(255,255,255)" stroke="none" stroke-width="1"/><rect id="erh3t0Si2Z938" width="32.92" height="75.06" rx="16.46" ry="16.46" transform="matrix(1 0 0 0.012989 364.14 162.752511)" fill="rgb(255,255,255)" stroke="none" stroke-width="1" stroke-dasharray="215.96"/><path id="erh3t0Si2Z939" d="M408.18,464.92C415.097173,500.996333,446.656512,527.079449,483.39,527.079449C520.123488,527.079449,551.682827,500.996333,558.6,464.92" transform="matrix(1 0 0 1 -144.15 -239.35)" fill="none" stroke="rgb(255,255,255)" stroke-width="21" stroke-linecap="round" stroke-miterlimit="10" stroke-dashoffset="211.58" stroke-dasharray="211.58"/></g><g id="erh3t0Si2Z940"><rect id="erh3t0Si2Z941" width="384.81" height="413.15" rx="20" ry="20" transform="matrix(1 0 0 1 141.65 19)" fill="none" stroke="rgb(108,24,55)" stroke-width="8" stroke-linecap="round" stroke-linejoin="round"/><rect id="erh3t0Si2Z942" width="260.81" height="306.81" rx="15" ry="15" transform="matrix(0 1 -1 0 487.46 58)" fill="none" stroke="rgb(108,24,55)" stroke-width="8" stroke-linecap="round" stroke-linejoin="round"/><rect id="erh3t0Si2Z943" width="510.82" height="413.15" rx="20" ry="20" transform="matrix(-1 0 0 -1 652.47 432.15)" fill="none" stroke="rgb(108,24,55)" stroke-width="8" stroke-linecap="round" stroke-linejoin="round"/><line id="erh3t0Si2Z944" x1="552.55" y1="303.07" x2="626.38" y2="303.07" fill="none" stroke="rgb(108,24,55)" stroke-width="5" stroke-linecap="round" stroke-linejoin="round"/><line id="erh3t0Si2Z945" x1="552.55" y1="272.07" x2="626.38" y2="272.07" fill="none" stroke="rgb(108,24,55)" stroke-width="5" stroke-linecap="round" stroke-linejoin="round"/><line id="erh3t0Si2Z946" x1="552.55" y1="241.07" x2="626.38" y2="241.07" fill="none" stroke="rgb(108,24,55)" stroke-width="5" stroke-linecap="round" stroke-linejoin="round"/><line id="erh3t0Si2Z947" x1="552.55" y1="210.07" x2="626.38" y2="210.07" fill="none" stroke="rgb(108,24,55)" stroke-width="5" stroke-linecap="round" stroke-linejoin="round"/><line id="erh3t0Si2Z948" x1="552.55" y1="179.07" x2="626.38" y2="179.07" fill="none" stroke="rgb(108,24,55)" stroke-width="5" stroke-linecap="round" stroke-linejoin="round"/><line id="erh3t0Si2Z949" x1="552.55" y1="148.07" x2="626.38" y2="148.07" fill="none" stroke="rgb(108,24,55)" stroke-width="5" stroke-linecap="round" stroke-linejoin="round"/><rect id="erh3t0Si2Z950" width="399.83" height="42.92" rx="0" ry="0" transform="matrix(1 0 0 1 197.15 432.15)" fill="none" stroke="rgb(108,24,55)" stroke-width="8" stroke-linecap="round" stroke-linejoin="round"/><rect id="erh3t0Si2Z951" width="277.64" height="42.92" rx="0" ry="0" transform="matrix(1 0 0 1 197.15 432.15)" fill="none" stroke="rgb(108,24,55)" stroke-width="8" stroke-linecap="round" stroke-linejoin="round"/><path id="erh3t0Si2Z952" d="M113.25,475.07L678.45,475.07C689.495695,475.07,698.45,484.024305,698.45,495.07L698.45,582.3L93.25,582.3L93.25,495.07C93.25,484.024305,102.204305,475.07,113.25,475.07Z" fill="none" stroke="rgb(108,24,55)" stroke-width="8" stroke-linecap="round" stroke-linejoin="round"/><path id="erh3t0Si2Z953" d="M113.25,475.07L554.85,475.07C565.895695,475.07,574.85,484.024305,574.85,495.07L574.85,582.3L93.25,582.3L93.25,495.07C93.25,484.024305,102.204305,475.07,113.25,475.07Z" fill="none" stroke="rgb(108,24,55)" stroke-width="8" stroke-linecap="round" stroke-linejoin="round"/><path id="erh3t0Si2Z954" d="M854.49,600.71L796.62,621.91L796.62,307.91L854.49,329.12C862.370532,332.007104,867.610255,339.507256,867.61,347.9L867.61,581.9C867.622857,590.303732,862.380862,597.819123,854.49,600.71Z" transform="matrix(1 0 0 1 -144.15 -239.35)" fill="none" stroke="rgb(108,24,55)" stroke-width="8" stroke-linecap="round" stroke-linejoin="round"/><rect id="erh3t0Si2Z955" width="180.68" height="55.89" rx="5" ry="5" transform="matrix(1 0 0 1 143.32 500.74)" fill="none" stroke="rgb(108,24,55)" stroke-width="8" stroke-linecap="round" stroke-linejoin="round"/><rect id="erh3t0Si2Z956" width="110.89" height="25.25" rx="5" ry="5" transform="matrix(1 0 0 1 419.66 516.06)" fill="none" stroke="rgb(108,24,55)" stroke-width="8" stroke-linecap="round" stroke-linejoin="round"/><circle id="erh3t0Si2Z957" r="22.52" transform="matrix(1 0 0 1 464.94 375.48)" fill="none" stroke="rgb(108,24,55)" stroke-width="5" stroke-linecap="round" stroke-linejoin="round"/><circle id="erh3t0Si2Z958" r="11.3" transform="matrix(1 0 0 1 302.95 375.48)" fill="none" stroke="rgb(108,24,55)" stroke-width="5" stroke-linecap="round" stroke-linejoin="round"/><circle id="erh3t0Si2Z959" r="11.3" transform="matrix(1 0 0 1 265.95 375.48)" fill="none" stroke="rgb(108,24,55)" stroke-width="5" stroke-linecap="round" stroke-linejoin="round"/><circle id="erh3t0Si2Z960" r="11.3" transform="matrix(1 0 0 1 228.95 375.48)" fill="none" stroke="rgb(108,24,55)" stroke-width="5" stroke-linecap="round" stroke-linejoin="round"/><circle id="erh3t0Si2Z961" r="11.3" transform="matrix(1 0 0 1 191.95 375.48)" fill="none" stroke="rgb(108,24,55)" stroke-width="5" stroke-linecap="round" stroke-linejoin="round"/><line id="erh3t0Si2Z962" x1="160.26" y1="538.68" x2="228.95" y2="538.68" fill="none" stroke="rgb(108,24,55)" stroke-width="5" stroke-linecap="round" stroke-linejoin="round"/><line id="erh3t0Si2Z963" x1="160.26" y1="528.68" x2="228.95" y2="528.68" fill="none" stroke="rgb(108,24,55)" stroke-width="5" stroke-linecap="round" stroke-linejoin="round"/><line id="erh3t0Si2Z964" x1="160.26" y1="518.68" x2="228.95" y2="518.68" fill="none" stroke="rgb(108,24,55)" stroke-width="5" stroke-linecap="round" stroke-linejoin="round"/><circle id="erh3t0Si2Z965" r="16" transform="matrix(1 0 0 1 288.94 528.68)" fill="none" stroke="rgb(108,24,55)" stroke-width="5" stroke-linecap="round" stroke-linejoin="round"/></g><script><![CDATA[!function(t,n){"object"==typeof exports&&"undefined"!=typeof module?module.exports=n(require("vue")):"function"==typeof define&&define.amd?define(["vue"],n):((t="undefined"!=typeof globalThis?globalThis:t||self).__SVGATOR_PLAYER__=t.__SVGATOR_PLAYER__||{},t.__SVGATOR_PLAYER__["7c8cb2ed"]=n())}(this,(function(){"use strict";function t(t,n){var r=Object.keys(t);if(Object.getOwnPropertySymbols){var e=Object.getOwnPropertySymbols(t);n&&(e=e.filter((function(n){return Object.getOwnPropertyDescriptor(t,n).enumerable}))),r.push.apply(r,e)}return r}function n(n){for(var r=1;r<arguments.length;r++){var e=null!=arguments[r]?arguments[r]:{};r%2?t(Object(e),!0).forEach((function(t){o(n,t,e[t])})):Object.getOwnPropertyDescriptors?Object.defineProperties(n,Object.getOwnPropertyDescriptors(e)):t(Object(e)).forEach((function(t){Object.defineProperty(n,t,Object.getOwnPropertyDescriptor(e,t))}))}return n}function r(t){return(r="function"==typeof Symbol&&"symbol"==typeof Symbol.iterator?function(t){return typeof t}:function(t){return t&&"function"==typeof Symbol&&t.constructor===Symbol&&t!==Symbol.prototype?"symbol":typeof t})(t)}function e(t,n){if(!(t instanceof n))throw new TypeError("Cannot call a class as a function")}function i(t,n){for(var r=0;r<n.length;r++){var e=n[r];e.enumerable=e.enumerable||!1,e.configurable=!0,"value"in e&&(e.writable=!0),Object.defineProperty(t,e.key,e)}}function u(t,n,r){return n&&i(t.prototype,n),r&&i(t,r),t}function o(t,n,r){return n in t?Object.defineProperty(t,n,{value:r,enumerable:!0,configurable:!0,writable:!0}):t[n]=r,t}function a(t){return(a=Object.setPrototypeOf?Object.getPrototypeOf:function(t){return t.__proto__||Object.getPrototypeOf(t)})(t)}function l(t,n){return(l=Object.setPrototypeOf||function(t,n){return t.__proto__=n,t})(t,n)}function f(t,n){if(n&&("object"==typeof n||"function"==typeof n))return n;if(void 0!==n)throw new TypeError("Derived constructors may only return object or undefined");return function(t){if(void 0===t)throw new ReferenceError("this hasn't been initialised - super() hasn't been called");return t}(t)}function s(t){var n=function(){if("undefined"==typeof Reflect||!Reflect.construct)return!1;if(Reflect.construct.sham)return!1;if("function"==typeof Proxy)return!0;try{return Boolean.prototype.valueOf.call(Reflect.construct(Boolean,[],(function(){}))),!0}catch(t){return!1}}();return function(){var r,e=a(t);if(n){var i=a(this).constructor;r=Reflect.construct(e,arguments,i)}else r=e.apply(this,arguments);return f(this,r)}}function c(t,n,r){return(c="undefined"!=typeof Reflect&&Reflect.get?Reflect.get:function(t,n,r){var e=function(t,n){for(;!Object.prototype.hasOwnProperty.call(t,n)&&null!==(t=a(t)););return t}(t,n);if(e){var i=Object.getOwnPropertyDescriptor(e,n);return i.get?i.get.call(r):i.value}})(t,n,r||t)}var h=v(Math.pow(10,-6));function v(t){var n=arguments.length>1&&void 0!==arguments[1]?arguments[1]:6;if(Number.isInteger(t))return t;var r=Math.pow(10,n);return Math.round((+t+Number.EPSILON)*r)/r}function y(t,n){var r=arguments.length>2&&void 0!==arguments[2]?arguments[2]:h;return Math.abs(t-n)<r}var g=Math.PI/180;function d(t){return t}function p(t,n,r){var e=1-r;return 3*r*e*(t*e+n*r)+r*r*r}function b(){var t=arguments.length>0&&void 0!==arguments[0]?arguments[0]:0,n=arguments.length>1&&void 0!==arguments[1]?arguments[1]:0,r=arguments.length>2&&void 0!==arguments[2]?arguments[2]:1,e=arguments.length>3&&void 0!==arguments[3]?arguments[3]:1;return t<0||t>1||r<0||r>1?null:y(t,n)&&y(r,e)?d:function(i){if(i<=0)return t>0?i*n/t:0===n&&r>0?i*e/r:0;if(i>=1)return r<1?1+(i-1)*(e-1)/(r-1):1===r&&t<1?1+(i-1)*(n-1)/(t-1):1;for(var u,o=0,a=1;o<a;){var l=p(t,r,u=(o+a)/2);if(y(i,l))break;l<i?o=u:a=u}return p(n,e,u)}}function m(){return 1}function w(t){return 1===t?1:0}function A(){var t=arguments.length>0&&void 0!==arguments[0]?arguments[0]:1,n=arguments.length>1&&void 0!==arguments[1]?arguments[1]:0;if(1===t){if(0===n)return w;if(1===n)return m}var r=1/t;return function(t){return t>=1?1:(t+=n*r)-t%r}}var x="undefined"!=typeof window&&/(Mac|iPhone|iPod|iPad)/i.test(window.navigator.platform);Object.freeze({Meta:x?"Control":"Meta",Ctrl:"Control",Down:"ArrowDown",Up:"ArrowUp",Left:"ArrowLeft",Right:"ArrowRight",Esc:"Escape",Delete:"Backspace",Space:"Space"});var k=Math.sin,_=Math.cos,S=Math.acos,O=Math.asin,j=Math.tan,E=Math.atan2,P=Math.PI/180,M=180/Math.PI,I=Math.sqrt,B=function(){function t(){var n=arguments.length>0&&void 0!==arguments[0]?arguments[0]:1,r=arguments.length>1&&void 0!==arguments[1]?arguments[1]:0,i=arguments.length>2&&void 0!==arguments[2]?arguments[2]:0,u=arguments.length>3&&void 0!==arguments[3]?arguments[3]:1,o=arguments.length>4&&void 0!==arguments[4]?arguments[4]:0,a=arguments.length>5&&void 0!==arguments[5]?arguments[5]:0;e(this,t),this.m=[n,r,i,u,o,a],this.i=null,this.w=null,this.s=null}return u(t,[{key:"determinant",get:function(){var t=this.m;return t[0]*t[3]-t[1]*t[2]}},{key:"isIdentity",get:function(){if(null===this.i){var t=this.m;this.i=1===t[0]&&0===t[1]&&0===t[2]&&1===t[3]&&0===t[4]&&0===t[5]}return this.i}},{key:"point",value:function(t,n){var r=this.m;return{x:r[0]*t+r[2]*n+r[4],y:r[1]*t+r[3]*n+r[5]}}},{key:"translateSelf",value:function(){var t=arguments.length>0&&void 0!==arguments[0]?arguments[0]:0,n=arguments.length>1&&void 0!==arguments[1]?arguments[1]:0;if(!t&&!n)return this;var r=this.m;return r[4]+=r[0]*t+r[2]*n,r[5]+=r[1]*t+r[3]*n,this.w=this.s=this.i=null,this}},{key:"rotateSelf",value:function(){var t=arguments.length>0&&void 0!==arguments[0]?arguments[0]:0;if(t%=360){var n=k(t*=P),r=_(t),e=this.m,i=e[0],u=e[1];e[0]=i*r+e[2]*n,e[1]=u*r+e[3]*n,e[2]=e[2]*r-i*n,e[3]=e[3]*r-u*n,this.w=this.s=this.i=null}return this}},{key:"scaleSelf",value:function(){var t=arguments.length>0&&void 0!==arguments[0]?arguments[0]:1,n=arguments.length>1&&void 0!==arguments[1]?arguments[1]:1;if(1!==t||1!==n){var r=this.m;r[0]*=t,r[1]*=t,r[2]*=n,r[3]*=n,this.w=this.s=this.i=null}return this}},{key:"skewSelf",value:function(t,n){if(n%=360,(t%=360)||n){var r=this.m,e=r[0],i=r[1],u=r[2],o=r[3];t&&(t=j(t*P),r[2]+=e*t,r[3]+=i*t),n&&(n=j(n*P),r[0]+=u*n,r[1]+=o*n),this.w=this.s=this.i=null}return this}},{key:"resetSelf",value:function(){var t=arguments.length>0&&void 0!==arguments[0]?arguments[0]:1,n=arguments.length>1&&void 0!==arguments[1]?arguments[1]:0,r=arguments.length>2&&void 0!==arguments[2]?arguments[2]:0,e=arguments.length>3&&void 0!==arguments[3]?arguments[3]:1,i=arguments.length>4&&void 0!==arguments[4]?arguments[4]:0,u=arguments.length>5&&void 0!==arguments[5]?arguments[5]:0,o=this.m;return o[0]=t,o[1]=n,o[2]=r,o[3]=e,o[4]=i,o[5]=u,this.w=this.s=this.i=null,this}},{key:"recomposeSelf",value:function(){var t=arguments.length>0&&void 0!==arguments[0]?arguments[0]:null,n=arguments.length>1&&void 0!==arguments[1]?arguments[1]:null,r=arguments.length>2&&void 0!==arguments[2]?arguments[2]:null,e=arguments.length>3&&void 0!==arguments[3]?arguments[3]:null,i=arguments.length>4&&void 0!==arguments[4]?arguments[4]:null;return this.isIdentity||this.resetSelf(),t&&(t.x||t.y)&&this.translateSelf(t.x,t.y),n&&this.rotateSelf(n),r&&(r.x&&this.skewSelf(r.x,0),r.y&&this.skewSelf(0,r.y)),!e||1===e.x&&1===e.y||this.scaleSelf(e.x,e.y),i&&(i.x||i.y)&&this.translateSelf(i.x,i.y),this}},{key:"decompose",value:function(){var t=arguments.length>0&&void 0!==arguments[0]?arguments[0]:0,n=arguments.length>1&&void 0!==arguments[1]?arguments[1]:0,r=this.m,e=r[0]*r[0]+r[1]*r[1],i=[[r[0],r[1]],[r[2],r[3]]],u=I(e);if(0===u)return{origin:{x:v(r[4]),y:v(r[5])},translate:{x:v(t),y:v(n)},scale:{x:0,y:0},skew:{x:0,y:0},rotate:0};i[0][0]/=u,i[0][1]/=u;var o=r[0]*r[3]-r[1]*r[2]<0;o&&(u=-u);var a=i[0][0]*i[1][0]+i[0][1]*i[1][1];i[1][0]-=i[0][0]*a,i[1][1]-=i[0][1]*a;var l=I(i[1][0]*i[1][0]+i[1][1]*i[1][1]);if(0===l)return{origin:{x:v(r[4]),y:v(r[5])},translate:{x:v(t),y:v(n)},scale:{x:v(u),y:0},skew:{x:0,y:0},rotate:0};i[1][0]/=l,i[1][1]/=l,a/=l;var f=0;return i[1][1]<0?(f=S(i[1][1])*M,i[0][1]<0&&(f=360-f)):f=O(i[0][1])*M,o&&(f=-f),a=E(a,I(i[0][0]*i[0][0]+i[0][1]*i[0][1]))*M,o&&(a=-a),{origin:{x:v(r[4]),y:v(r[5])},translate:{x:v(t),y:v(n)},scale:{x:v(u),y:v(l)},skew:{x:v(a),y:0},rotate:v(f)}}},{key:"toString",value:function(){var t=arguments.length>0&&void 0!==arguments[0]?arguments[0]:" ";return null===this.s&&(this.s="matrix("+this.m.map((function(t){return v(t)})).join(t)+")"),this.s}}]),t}();function R(t,n,r){return t>=.5?r:n}function N(t,n,r){return 0===t||n===r?n:t*(r-n)+n}function F(t,n,r){var e=N(t,n,r);return e<=0?0:e}function T(t,n,r){var e=N(t,n,r);return e<=0?0:e>=1?1:e}function q(t,n,r){return 0===t?n:1===t?r:{x:N(t,n.x,r.x),y:N(t,n.y,r.y)}}function L(t,n,r){return 0===t?n:1===t?r:{x:F(t,n.x,r.x),y:F(t,n.y,r.y)}}function C(t,n,r){var e=function(t,n,r){return Math.round(N(t,n,r))}(t,n,r);return e<=0?0:e>=255?255:e}function D(t,n,r){return 0===t?n:1===t?r:{r:C(t,n.r,r.r),g:C(t,n.g,r.g),b:C(t,n.b,r.b),a:N(t,null==n.a?1:n.a,null==r.a?1:r.a)}}function V(t,n,r){var e=n.length;if(e!==r.length)return R(t,n,r);for(var i=new Array(e),u=0;u<e;u++)i[u]=N(t,n[u],r[u]);return i}function z(t,n){for(var r=[],e=0;e<t;e++)r.push(n);return r}function G(t,n){if(--n<=0)return t;var r=(t=Object.assign([],t)).length;do{for(var e=0;e<r;e++)t.push(t[e])}while(--n>0);return t}var Y,U=function(){function t(n){e(this,t),this.list=n,this.length=n.length}return u(t,[{key:"setAttribute",value:function(t,n){for(var r=this.list,e=0;e<this.length;e++)r[e].setAttribute(t,n)}},{key:"removeAttribute",value:function(t){for(var n=this.list,r=0;r<this.length;r++)n[r].removeAttribute(t)}},{key:"style",value:function(t,n){for(var r=this.list,e=0;e<this.length;e++)r[e].style[t]=n}}]),t}(),$=/-./g,Q=function(t,n){return n.toUpperCase()};function H(t){return"function"==typeof t?t:R}function J(t){return t?"function"==typeof t?t:Array.isArray(t)?function(t){var n=arguments.length>1&&void 0!==arguments[1]?arguments[1]:d;if(!Array.isArray(t))return n;switch(t.length){case 1:return A(t[0])||n;case 2:return A(t[0],t[1])||n;case 4:return b(t[0],t[1],t[2],t[3])||n}return n}(t,null):function(t,n){var r=arguments.length>2&&void 0!==arguments[2]?arguments[2]:d;switch(t){case"linear":return d;case"steps":return A(n.steps||1,n.jump||0)||r;case"bezier":case"cubic-bezier":return b(n.x1||0,n.y1||0,n.x2||0,n.y2||0)||r}return r}(t.type,t.value,null):null}function Z(t,n,r){var e=arguments.length>3&&void 0!==arguments[3]&&arguments[3],i=n.length-1;if(t<=n[0].t)return e?[0,0,n[0].v]:n[0].v;if(t>=n[i].t)return e?[i,1,n[i].v]:n[i].v;var u,o=n[0],a=null;for(u=1;u<=i;u++){if(!(t>n[u].t)){a=n[u];break}o=n[u]}return null==a?e?[i,1,n[i].v]:n[i].v:o.t===a.t?e?[u,1,a.v]:a.v:(t=(t-o.t)/(a.t-o.t),o.e&&(t=o.e(t)),e?[u,t,r(t,o.v,a.v)]:r(t,o.v,a.v))}function K(t,n){var r=arguments.length>2&&void 0!==arguments[2]?arguments[2]:null;return t&&t.length?"function"!=typeof n?null:("function"!=typeof r&&(r=null),function(e){var i=Z(e,t,n);return null!=i&&r&&(i=r(i)),i}):null}function W(t,n){return t.t-n.t}function X(t,n,e,i,u){var o,a="@"===e[0],l="#"===e[0],f=Y[e],s=R;switch(a?(o=e.substr(1),e=o.replace($,Q)):l&&(e=e.substr(1)),r(f)){case"function":if(s=f(i,u,Z,J,e,a,n,t),l)return s;break;case"string":s=K(i,H(f));break;case"object":if((s=K(i,H(f.i),f.f))&&"function"==typeof f.u)return f.u(n,s,e,a,t)}return s?function(t,n,r){if(arguments.length>3&&void 0!==arguments[3]&&arguments[3])return t instanceof U?function(e){return t.style(n,r(e))}:function(e){return t.style[n]=r(e)};if(Array.isArray(n)){var e=n.length;return function(i){var u=r(i);if(null==u)for(var o=0;o<e;o++)t[o].removeAttribute(n);else for(var a=0;a<e;a++)t[a].setAttribute(n,u)}}return function(e){var i=r(e);null==i?t.removeAttribute(n):t.setAttribute(n,i)}}(n,e,s,a):null}function tt(t,n,e,i){if(!i||"object"!==r(i))return null;var u=null,o=null;return Array.isArray(i)?o=function(t){if(!t||!t.length)return null;for(var n=0;n<t.length;n++)t[n].e&&(t[n].e=J(t[n].e));return t.sort(W)}(i):(o=i.keys,u=i.data||null),o?X(t,n,e,o,u):null}function nt(t,n,r){if(!r)return null;var e=[];for(var i in r)if(r.hasOwnProperty(i)){var u=tt(t,n,i,r[i]);u&&e.push(u)}return e.length?e:null}function rt(t,n){if(!n.duration||n.duration<0)return null;var r=function(t,n){if(!n)return null;var r=[];if(Array.isArray(n))for(var e=n.length,i=0;i<e;i++){var u=n[i];if(2===u.length){var o=null;if("string"==typeof u[0])o=t.getElementById(u[0]);else if(Array.isArray(u[0])){o=[];for(var a=0;a<u[0].length;a++)if("string"==typeof u[0][a]){var l=t.getElementById(u[0][a]);l&&o.push(l)}o=o.length?1===o.length?o[0]:new U(o):null}if(o){var f=nt(t,o,u[1]);f&&(r=r.concat(f))}}}else for(var s in n)if(n.hasOwnProperty(s)){var c=t.getElementById(s);if(c){var h=nt(t,c,n[s]);h&&(r=r.concat(h))}}return r.length?r:null}(t,n.elements);return r?function(t,n){var r=arguments.length>2&&void 0!==arguments[2]?arguments[2]:1/0,e=arguments.length>3&&void 0!==arguments[3]?arguments[3]:1,i=arguments.length>4&&void 0!==arguments[4]&&arguments[4],u=arguments.length>5&&void 0!==arguments[5]?arguments[5]:1,o=t.length,a=e>0?n:0;i&&r%2==0&&(a=n-a);var l=null;return function(f,s){var c=f%n,h=1+(f-c)/n;s*=e,i&&h%2==0&&(s=-s);var v=!1;if(h>r)c=a,v=!0,-1===u&&(c=e>0?0:n);else if(s<0&&(c=n-c),c===l)return!1;l=c;for(var y=0;y<o;y++)t[y](c);return v}}(r,n.duration,n.iterations||1/0,n.direction||1,!!n.alternate,n.fill||1):null}function et(t){return+("0x"+(t.replace(/[^0-9a-fA-F]+/g,"")||27))}function it(t,n,r){return!t||!r||n>t.length?t:t.substring(0,n)+it(t.substring(n+1),r,r)}function ut(t){var n=arguments.length>1&&void 0!==arguments[1]?arguments[1]:27;return!t||t%n?t%n:ut(t/n,n)}function ot(t,n,r){if(t&&t.length){var e=et(r),i=et(n),u=ut(e)+5,o=it(t,ut(e,5),u);return o=o.replace(/\x7c$/g,"==").replace(/\x2f$/g,"="),o=function(t,n,r){var e=+("0x"+t.substring(0,4));t=t.substring(4);for(var i=n%e+r%27,u=[],o=0;o<t.length;o+=2)if("|"!==t[o]){var a=+("0x"+t[o]+t[o+1])-i;u.push(a)}else{var l=+("0x"+t.substring(o+1,o+1+4))-i;o+=3,u.push(l)}return String.fromCharCode.apply(String,u)}(o=(o=atob(o)).replace(/[\x41-\x5A]/g,""),i,e),o=JSON.parse(o)}}Number.isInteger||(Number.isInteger=function(t){return"number"==typeof t&&isFinite(t)&&Math.floor(t)===t}),Number.EPSILON||(Number.EPSILON=2220446049250313e-31);var at=function(){function t(n,r){var i=arguments.length>2&&void 0!==arguments[2]?arguments[2]:{};e(this,t),this._id=0,this._running=!1,this._rollingBack=!1,this._animations=n,this.duration=r.duration,this.alternate=r.alternate,this.fill=r.fill,this.iterations=r.iterations,this.direction=i.direction||1,this.speed=i.speed||1,this.fps=i.fps||100,this.offset=i.offset||0,this.rollbackStartOffset=0}return u(t,[{key:"_rollback",value:function(){var t=this,n=1/0,r=null;this.rollbackStartOffset=this.offset,this._rollingBack||(this._rollingBack=!0,this._running=!0);this._id=window.requestAnimationFrame((function e(i){if(t._rollingBack){null==r&&(r=i);var u=i-r,o=t.rollbackStartOffset-u,a=Math.round(o*t.speed);if(a>t.duration&&n!=1/0){var l=!!t.alternate&&a/t.duration%2>1,f=a%t.duration;a=(f+=l?t.duration:0)||t.duration}var s=t.fps?1e3/t.fps:0,c=Math.max(0,a);if(c<n-s){t.offset=c,n=c;for(var h=t._animations,v=h.length,y=0;y<v;y++)h[y](c,t.direction)}var g=!1;if(t.iterations>0&&-1===t.fill){var d=t.iterations*t.duration,p=d==a;a=p?0:a,t.offset=p?0:t.offset,g=a>d}a>0&&t.offset>=a&&!g?t._id=window.requestAnimationFrame(e):t.stop()}}))}},{key:"_start",value:function(){var t=this,n=arguments.length>0&&void 0!==arguments[0]?arguments[0]:0,r=-1/0,e=null,i={},u=function u(o){t._running=!0,null==e&&(e=o);var a=Math.round((o-e+n)*t.speed),l=t.fps?1e3/t.fps:0;if(a>r+l&&!t._rollingBack){t.offset=a,r=a;for(var f=t._animations,s=f.length,c=0,h=0;h<s;h++)i[h]?c++:(i[h]=f[h](a,t.direction),i[h]&&c++);if(c===s)return void t._stop()}t._id=window.requestAnimationFrame(u)};this._id=window.requestAnimationFrame(u)}},{key:"_stop",value:function(){this._id&&window.cancelAnimationFrame(this._id),this._running=!1,this._rollingBack=!1}},{key:"play",value:function(){!this._rollingBack&&this._running||(this._rollingBack=!1,this.rollbackStartOffset>this.duration&&(this.offset=this.rollbackStartOffset-(this.rollbackStartOffset-this.offset)%this.duration,this.rollbackStartOffset=0),this._start(this.offset))}},{key:"stop",value:function(){this._stop(),this.offset=0,this.rollbackStartOffset=0;var t=this.direction,n=this._animations;window.requestAnimationFrame((function(){for(var r=0;r<n.length;r++)n[r](0,t)}))}},{key:"reachedToEnd",value:function(){return this.iterations>0&&this.offset>=this.iterations*this.duration}},{key:"restart",value:function(){this._stop(),this.offset=0,this._start()}},{key:"pause",value:function(){this._stop()}},{key:"reverse",value:function(){this.direction=-this.direction}}],[{key:"build",value:function(r,e){return delete r.animationSettings,r.options=ot(r.options,r.root,"7c8cb2ed"),r.animations.map((function(t){var e=ot(t.s,r.root,"7c8cb2ed");for(var i in delete t.s,r.animationSettings||(r.animationSettings=n({},e)),e)e.hasOwnProperty(i)&&(t[i]=e[i])})),(r=function(t,n){if(Y=n,!t||!t.root||!Array.isArray(t.animations))return null;for(var r=document.getElementsByTagName("svg"),e=!1,i=0;i<r.length;i++)if(r[i].id===t.root&&!r[i].svgatorAnimation){(e=r[i]).svgatorAnimation=!0;break}if(!e)return null;var u=t.animations.map((function(t){return rt(e,t)})).filter((function(t){return!!t}));return u.length?{element:e,animations:u,animationSettings:t.animationSettings,options:t.options||void 0}:null}(r,e))?{el:r.element,options:r.options||{},player:new t(r.animations,r.animationSettings,r.options)}:null}},{key:"push",value:function(t){return this.build(t)}},{key:"init",value:function(){var t=this,n=window.__SVGATOR_PLAYER__&&window.__SVGATOR_PLAYER__["7c8cb2ed"];Array.isArray(n)&&n.splice(0).forEach((function(n){return t.build(n)}))}}]),t}();function lt(t){return v(t)+""}function ft(t){var n=arguments.length>1&&void 0!==arguments[1]?arguments[1]:" ";return t&&t.length?t.map(lt).join(n):""}function st(t){return lt(t.x)+","+lt(t.y)}function ct(t){return t?null==t.a||t.a>=1?"rgb("+t.r+","+t.g+","+t.b+")":"rgba("+t.r+","+t.g+","+t.b+","+t.a+")":"transparent"}function ht(t){return t?"url(#"+t+")":"none"}!function(){for(var t=0,n=["ms","moz","webkit","o"],r=0;r<n.length&&!window.requestAnimationFrame;++r)window.requestAnimationFrame=window[n[r]+"RequestAnimationFrame"],window.cancelAnimationFrame=window[n[r]+"CancelAnimationFrame"]||window[n[r]+"CancelRequestAnimationFrame"];window.requestAnimationFrame||(window.requestAnimationFrame=function(n){var r=Date.now(),e=Math.max(0,16-(r-t)),i=window.setTimeout((function(){n(r+e)}),e);return t=r+e,i},window.cancelAnimationFrame=window.clearTimeout)}();var vt={f:null,i:L,u:function(t,n){return function(r){var e=n(r);t.setAttribute("rx",lt(e.x)),t.setAttribute("ry",lt(e.y))}}},yt={f:null,i:function(t,n,r){return 0===t?n:1===t?r:{width:F(t,n.width,r.width),height:F(t,n.height,r.height)}},u:function(t,n){return function(r){var e=n(r);t.setAttribute("width",lt(e.width)),t.setAttribute("height",lt(e.height))}}};Object.freeze({M:2,L:2,Z:0,H:1,V:1,C:6,Q:4,T:2,S:4,A:7});var gt={},dt=null;function pt(t){var n=function(){if(dt)return dt;if("object"!==("undefined"==typeof document?"undefined":r(document))||!document.createElementNS)return{};var t=document.createElementNS("http://www.w3.org/2000/svg","svg");return t&&t.style?(t.style.position="absolute",t.style.opacity="0.01",t.style.zIndex="-9999",t.style.left="-9999px",t.style.width="1px",t.style.height="1px",dt={svg:t}):{}}().svg;if(!n)return function(t){return null};var e=document.createElementNS(n.namespaceURI,"path");e.setAttributeNS(null,"d",t),e.setAttributeNS(null,"fill","none"),e.setAttributeNS(null,"stroke","none"),n.appendChild(e);var i=e.getTotalLength();return function(t){var n=e.getPointAtLength(i*t);return{x:n.x,y:n.y}}}function bt(t){return gt[t]?gt[t]:gt[t]=pt(t)}function mt(t,n,r,e){if(!t||!e)return!1;var i=["M",t.x,t.y];if(n&&r&&(i.push("C"),i.push(n.x),i.push(n.y),i.push(r.x),i.push(r.y)),n?!r:r){var u=n||r;i.push("Q"),i.push(u.x),i.push(u.y)}return n||r||i.push("L"),i.push(e.x),i.push(e.y),i.join(" ")}function wt(t,n,r,e){var i=arguments.length>4&&void 0!==arguments[4]?arguments[4]:1,u=mt(t,n,r,e),o=bt(u);try{return o(i)}catch(t){return null}}function At(t,n,r,e){var i=1-e;return i*i*t+2*i*e*n+e*e*r}function xt(t,n,r,e){return 2*(1-e)*(n-t)+2*e*(r-n)}function kt(t,n,r,e){var i=arguments.length>4&&void 0!==arguments[4]&&arguments[4],u=wt(t,n,null,r,e);return u||(u={x:At(t.x,n.x,r.x,e),y:At(t.y,n.y,r.y,e)}),i&&(u.a=_t(t,n,r,e)),u}function _t(t,n,r,e){return Math.atan2(xt(t.y,n.y,r.y,e),xt(t.x,n.x,r.x,e))}function St(t,n,r,e,i){var u=i*i;return i*u*(e-t+3*(n-r))+3*u*(t+r-2*n)+3*i*(n-t)+t}function Ot(t,n,r,e,i){var u=1-i;return 3*(u*u*(n-t)+2*u*i*(r-n)+i*i*(e-r))}function jt(t,n,r,e,i){var u=arguments.length>5&&void 0!==arguments[5]&&arguments[5],o=wt(t,n,r,e,i);return o||(o={x:St(t.x,n.x,r.x,e.x,i),y:St(t.y,n.y,r.y,e.y,i)}),u&&(o.a=Et(t,n,r,e,i)),o}function Et(t,n,r,e,i){return Math.atan2(Ot(t.y,n.y,r.y,e.y,i),Ot(t.x,n.x,r.x,e.x,i))}function Pt(t,n,r){return t+(n-t)*r}function Mt(t,n,r){var e=arguments.length>3&&void 0!==arguments[3]&&arguments[3],i={x:Pt(t.x,n.x,r),y:Pt(t.y,n.y,r)};return e&&(i.a=It(t,n)),i}function It(t,n){return Math.atan2(n.y-t.y,n.x-t.x)}function Bt(t,n,r){var e=arguments.length>3&&void 0!==arguments[3]&&arguments[3];if(Nt(n)){if(Ft(r))return kt(n,r.start,r,t,e)}else if(Nt(r)){if(n.end)return kt(n,n.end,r,t,e)}else{if(n.end)return r.start?jt(n,n.end,r.start,r,t,e):kt(n,n.end,r,t,e);if(r.start)return kt(n,r.start,r,t,e)}return Mt(n,r,t,e)}function Rt(t,n,r){var e=Bt(t,n,r,!0);return e.a=function(t){return arguments.length>1&&void 0!==arguments[1]&&arguments[1]?t+Math.PI:t}(e.a)/g,e}function Nt(t){return!t.type||"corner"===t.type}function Ft(t){return null!=t.start&&!Nt(t)}var Tt=new B;var qt={f:function(t){return t?t.join(" "):""},i:function(t,n,e){if(0===t)return n;if(1===t)return e;var i=n.length;if(i!==e.length)return R(t,n,e);for(var u,o=new Array(i),a=0;a<i;a++){if((u=r(n[a]))!==r(e[a]))return R(t,n,e);if("number"===u)o[a]=N(t,n[a],e[a]);else{if(n[a]!==e[a])return R(t,n,e);o[a]=n[a]}}return o}},Lt={f:null,i:V,u:function(t,n){return function(r){var e=n(r);t.setAttribute("x1",lt(e[0])),t.setAttribute("y1",lt(e[1])),t.setAttribute("x2",lt(e[2])),t.setAttribute("y2",lt(e[3]))}}},Ct={f:lt,i:N},Dt={f:lt,i:T},Vt={f:function(t){var n=arguments.length>1&&void 0!==arguments[1]?arguments[1]:" ";return t&&t.length>0&&(t=t.map((function(t){return v(t,4)}))),ft(t,n)},i:function(t,n,r){var e,i,u,o=n.length,a=r.length;if(o!==a)if(0===o)n=z(o=a,0);else if(0===a)a=o,r=z(o,0);else{var l=(u=(e=o)*(i=a)/function(t,n){for(var r;n;)r=n,n=t%n,t=r;return t||1}(e,i))<0?-u:u;n=G(n,Math.floor(l/o)),r=G(r,Math.floor(l/a)),o=a=l}for(var f=[],s=0;s<o;s++)f.push(v(F(t,n[s],r[s])));return f}};function zt(t,n,r){return t.map((function(t){return function(t,n,r){var e=t.v;if(!e||"g"!==e.t||e.s||!e.v||!e.r)return t;var i=r.getElementById(e.r),u=i&&i.querySelectorAll("stop")||[];return e.s=e.v.map((function(t,n){var r=u[n]&&u[n].getAttribute("offset");return{c:t,o:r=v(parseInt(r)/100)}})),delete e.v,t}(t,0,r)}))}var Gt={gt:"gradientTransform",c:{x:"cx",y:"cy"},rd:"r",f:{x:"x1",y:"y1"},to:{x:"x2",y:"y2"}};function Yt(t,n,e,i,u,o,a,l){return zt(t,0,l),n=function(t,n,r){for(var e,i,u,o=t.length-1,a={},l=0;l<=o;l++)(e=t[l]).e&&(e.e=n(e.e)),e.v&&"g"===(i=e.v).t&&i.r&&(u=r.getElementById(i.r))&&(a[i.r]={e:u,s:u.querySelectorAll("stop")});return a}(t,i,l),function(i){var u=e(i,t,Ut);if(!u)return"none";if("c"===u.t)return ct(u.v);if("g"===u.t){if(!n[u.r])return ht(u.r);var o=n[u.r];return function(t,n){for(var r=t.s,e=r.length;e<n.length;e++){var i=r[r.length-1].cloneNode();i.id=Ht(i.id),t.e.appendChild(i),r=t.s=t.e.querySelectorAll("stop")}for(var u=0,o=r.length,a=n.length-1;u<o;u++)r[u].setAttribute("stop-color",ct(n[Math.min(u,a)].c)),r[u].setAttribute("offset",n[Math.min(u,a)].o)}(o,u.s),Object.keys(Gt).forEach((function(t){if(void 0!==u[t])if("object"!==r(Gt[t])){var n,e="gt"===t?(n=u[t],Array.isArray(n)?"matrix("+n.join(" ")+")":""):u[t],i=Gt[t];o.e.setAttribute(i,e)}else Object.keys(Gt[t]).forEach((function(n){if(void 0!==u[t][n]){var r=u[t][n],e=Gt[t][n];o.e.setAttribute(e,r)}}))})),ht(u.r)}return"none"}}function Ut(t,r,e){if(0===t)return r;if(1===t)return e;if(r&&e){var i=r.t;if(i===e.t)switch(r.t){case"c":return{t:i,v:D(t,r.v,e.v)};case"g":if(r.r===e.r){var u={t:i,s:$t(t,r.s,e.s),r:r.r};return r.gt&&e.gt&&(u.gt=V(t,r.gt,e.gt)),r.c?(u.c=q(t,r.c,e.c),u.rd=F(t,r.rd,e.rd)):r.f&&(u.f=q(t,r.f,e.f),u.to=q(t,r.to,e.to)),u}}if("c"===r.t&&"g"===e.t||"c"===e.t&&"g"===r.t){var o="c"===r.t?r:e,a="g"===r.t?n({},r):n({},e),l=a.s.map((function(t){return{c:o.v,o:t.o}}));return a.s="c"===r.t?$t(t,l,a.s):$t(t,a.s,l),a}}return R(t,r,e)}function $t(t,n,r){if(n.length===r.length)return n.map((function(n,e){return Qt(t,n,r[e])}));for(var e=Math.max(n.length,r.length),i=[],u=0;u<e;u++){var o=Qt(t,n[Math.min(u,n.length-1)],r[Math.min(u,r.length-1)]);i.push(o)}return i}function Qt(t,n,r){return{o:T(t,n.o,r.o||0),c:D(t,n.c,r.c||{})}}function Ht(t){return t.replace(/-fill-([0-9]+)$/,(function(t,n){return"-fill-"+(+n+1)}))}var Jt={blur:L,brightness:F,contrast:F,"drop-shadow":function(t,n,r){return 0===t?n:1===t?r:{blur:L(t,n.blur,r.blur),offset:q(t,n.offset,r.offset),color:D(t,n.color,r.color)}},grayscale:F,"hue-rotate":N,invert:F,opacity:F,saturate:F,sepia:F};function Zt(t,n,r){if(0===t)return n;if(1===t)return r;var e=n.length;if(e!==r.length)return R(t,n,r);for(var i,u=[],o=0;o<e;o++){if(n[o].type!==r[o].type)return n;if(!(i=Jt[n[o].type]))return R(t,n,r);u.push({type:n.type,value:i(t,n[o].value,r[o].value)})}return u}var Kt={blur:function(t){return t?function(n){t.setAttribute("stdDeviation",st(n))}:null},brightness:function(t,n,r){return(t=Xt(r,n))?function(n){n=lt(n),t.map((function(t){return t.setAttribute("slope",n)}))}:null},contrast:function(t,n,r){return(t=Xt(r,n))?function(n){var r=lt((1-n)/2);n=lt(n),t.map((function(t){t.setAttribute("slope",n),t.setAttribute("intercept",r)}))}:null},"drop-shadow":function(t,n,r){var e=r.getElementById(n+"-blur");if(!e)return null;var i=r.getElementById(n+"-offset");if(!i)return null;var u=r.getElementById(n+"-flood");return u?function(t){e.setAttribute("stdDeviation",st(t.blur)),i.setAttribute("dx",lt(t.offset.x)),i.setAttribute("dy",lt(t.offset.y)),u.setAttribute("flood-color",ct(t.color))}:null},grayscale:function(t){return t?function(n){t.setAttribute("values",ft(function(t){return[.2126+.7874*(t=1-t),.7152-.7152*t,.0722-.0722*t,0,0,.2126-.2126*t,.7152+.2848*t,.0722-.0722*t,0,0,.2126-.2126*t,.7152-.7152*t,.0722+.9278*t,0,0,0,0,0,1,0]}(n)))}:null},"hue-rotate":function(t){return t?function(n){return t.setAttribute("values",lt(n))}:null},invert:function(t,n,r){return(t=Xt(r,n))?function(n){n=lt(n)+" "+lt(1-n),t.map((function(t){return t.setAttribute("tableValues",n)}))}:null},opacity:function(t,n,r){return(t=r.getElementById(n+"-A"))?function(n){return t.setAttribute("tableValues","0 "+lt(n))}:null},saturate:function(t){return t?function(n){return t.setAttribute("values",lt(n))}:null},sepia:function(t){return t?function(n){return t.setAttribute("values",ft(function(t){return[.393+.607*(t=1-t),.769-.769*t,.189-.189*t,0,0,.349-.349*t,.686+.314*t,.168-.168*t,0,0,.272-.272*t,.534-.534*t,.131+.869*t,0,0,0,0,0,1,0]}(n)))}:null}};var Wt=["R","G","B"];function Xt(t,n){var r=Wt.map((function(r){return t.getElementById(n+"-"+r)||null}));return-1!==r.indexOf(null)?null:r}var tn={fill:Yt,"fill-opacity":Dt,stroke:Yt,"stroke-opacity":Dt,"stroke-width":Ct,"stroke-dashoffset":{f:lt,i:N},"stroke-dasharray":Vt,opacity:Dt,transform:function(t,n,e,i){if(!(t=function(t,n){if(!t||"object"!==r(t))return null;var e=!1;for(var i in t)t.hasOwnProperty(i)&&(t[i]&&t[i].length?(t[i].forEach((function(t){t.e&&(t.e=n(t.e))})),e=!0):delete t[i]);return e?t:null}(t,i)))return null;var u=function(r,i,u){var o=arguments.length>3&&void 0!==arguments[3]?arguments[3]:null;return t[r]?e(i,t[r],u):n&&n[r]?n[r]:o};return n&&n.a&&t.o?function(n){var r=e(n,t.o,Rt);return Tt.recomposeSelf(r,u("r",n,N,0)+r.a,u("k",n,q),u("s",n,q),u("t",n,q)).toString()}:function(t){return Tt.recomposeSelf(u("o",t,Bt,null),u("r",t,N,0),u("k",t,q),u("s",t,q),u("t",t,q)).toString()}},"#filter":function(t,n,r,e,i,u,o,a){if(!n.items||!t||!t.length)return null;var l=function(t,n){var r=(t=t.map((function(t){return t&&Kt[t[0]]?(n.getElementById(t[1]),Kt[t[0]](n.getElementById(t[1]),t[1],n)):null}))).length;return function(n){for(var e=0;e<r;e++)t[e]&&t[e](n[e].value)}}(n.items,a);return l?(t=function(t,n){return t.map((function(t){return t.e=n(t.e),t}))}(t,e),function(n){l(r(n,t,Zt))}):null},"#line":Lt,points:{f:ft,i:V},d:qt,r:Ct,"#size":yt,"#radius":vt,_:function(t,n){if(Array.isArray(t))for(var r=0;r<t.length;r++)this[t[r]]=n;else this[t]=n}},nn=function(t){!function(t,n){if("function"!=typeof n&&null!==n)throw new TypeError("Super expression must either be null or a function");t.prototype=Object.create(n&&n.prototype,{constructor:{value:t,writable:!0,configurable:!0}}),n&&l(t,n)}(r,t);var n=s(r);function r(){return e(this,r),n.apply(this,arguments)}return u(r,null,[{key:"build",value:function(t){var n=c(a(r),"build",this).call(this,t,tn);if(!n)return null;n.el,n.options,function(t,n,r){t.play()}(n.player)}}]),r}(at);return nn.init(),nn}));
(function(s,i,o,w){w[o]=w[o]||{};w[o][s]=w[o][s]||[];w[o][s].push(i);})('7c8cb2ed',{"root":"erh3t0Si2Z91","animations":[{"elements":{"erh3t0Si2Z937":{"transform":{"data":{"t":{"x":-16.459999,"y":-37.529994}},"keys":{"o":[{"t":4800,"v":{"x":297.779999,"y":163.239994,"type":"corner"}},{"t":5000,"v":{"x":247.569999,"y":163.240069,"type":"corner"}},{"t":6400,"v":{"x":247.569999,"y":163.240069,"type":"corner"}},{"t":6500,"v":{"x":397.989999,"y":163.240069,"type":"corner"}},{"t":7600,"v":{"x":397.989999,"y":163.240069,"type":"corner"}},{"t":7800,"v":{"x":297.779999,"y":163.240069,"type":"corner"}}],"s":[{"t":1120,"v":{"x":1,"y":0.012989}},{"t":1170,"v":{"x":1,"y":1}}]}}},"erh3t0Si2Z938":{"transform":{"data":{"t":{"x":-16.460006,"y":-37.529994}},"keys":{"o":[{"t":1300,"v":{"x":380.600006,"y":163.239988,"type":"corner"}},{"t":4800,"v":{"x":380.600006,"y":163.239994,"type":"corner"}},{"t":5000,"v":{"x":293.710006,"y":163.240144,"type":"corner"}},{"t":6400,"v":{"x":293.710006,"y":163.240144,"type":"corner"}},{"t":6500,"v":{"x":448.480006,"y":163.240144,"type":"corner"}},{"t":7600,"v":{"x":448.480006,"y":163.240144,"type":"corner"}},{"t":7800,"v":{"x":380.600006,"y":163.240144,"type":"corner"}}],"s":[{"t":1120,"v":{"x":1,"y":0.012989}},{"t":1170,"v":{"x":1,"y":0.999999}},{"t":2670,"v":{"x":1,"y":1}},{"t":2800,"v":{"x":1,"y":0.029147}},{"t":2940,"v":{"x":1,"y":1.000002}}]}}},"erh3t0Si2Z939":{"d":[{"t":4600,"v":["M",408.18,464.92,"C",415.097173,500.996333,446.656512,527.079449,483.39,527.079449,"C",520.123488,527.079449,551.682827,500.996333,558.6,464.92]},{"t":4700,"v":["M",409.48,527.079449,"C",435.8,527.079449,446.656512,527.079449,483.39,527.079449,"C",520.123488,527.079449,524.75,527.07945,558.437705,527.079449]},{"t":7700,"v":["M",409.48,527.079449,"C",435.8,527.079449,446.656512,527.079449,483.39,527.079449,"C",520.123488,527.079449,524.75,527.07945,558.437705,527.079449]},{"t":7900,"v":["M",408.18,464.92,"C",415.097173,500.996333,446.656512,527.079449,483.39,527.079449,"C",520.123488,527.079449,551.682827,500.996333,558.6,464.92]}],"stroke-dashoffset":[{"t":1510,"v":211.58},{"t":2000,"v":0}]}},"s":"MDA1LM2RiRDgyYzRkNWQyYzFkNEVjQOWNmY2U4MjlhOTg5MDkwOTA4EYzgyYzRjOWQyYzVjM2Q0YzljJZmNlODI5YTkxOGM4MkZjOWQ0SYzVkMmMxZDRjOWNmY2VkMzgyUOWE5MThjODJjNkFjOUtjY2NjBODI5YTkxOGM4MmMxY2NOZDRjLNWQyY2VjMWQ0YzU4MjlhYzZjJMWNjZDNjNThjODJkM1JkMGM1IYzVjNDgyOWE5MWRk"}],"options":"MDAxFMDhmMzY4Nzg4NzVCODY4ODM2HNGUzNjgwODM3NTc4MzZWOTE/H"},'__SVGATOR_PLAYER__',window)]]></script></svg>